<svg width="26" height="26" viewBox="0 0 26 26" fill="none" xmlns="http://www.w3.org/2000/svg">
<path d="M6.23337 9.93294C5.63337 9.93294 5.12226 9.72183 4.70004 9.29961C4.27782 8.87739 4.06671 8.36628 4.06671 7.76628C4.06671 7.16628 4.27782 6.65517 4.70004 6.23294C5.12226 5.81072 5.63337 5.59961 6.23337 5.59961C6.83337 5.59961 7.34449 5.81072 7.76671 6.23294C8.18893 6.65517 8.40004 7.16628 8.40004 7.76628C8.40004 8.36628 8.18893 8.87739 7.76671 9.29961C7.34449 9.72183 6.83337 9.93294 6.23337 9.93294ZM3.73337 25.6663C3.33337 25.6663 2.98893 25.5496 2.70004 25.3163C2.41115 25.0829 2.26671 24.7552 2.26671 24.3329C1.73337 24.3329 1.27782 24.1385 0.900041 23.7496C0.522263 23.3607 0.333374 22.9107 0.333374 22.3996V15.9663C0.333374 15.6996 0.427819 15.4718 0.616708 15.2829C0.805596 15.0941 1.03337 14.9996 1.30004 14.9996H4.06671V14.0663C4.06671 13.3329 4.32226 12.7107 4.83337 12.1996C5.34449 11.6885 5.97782 11.4329 6.73337 11.4329C7.11115 11.4329 7.48893 11.5163 7.86671 11.6829C8.24448 11.8496 8.56671 12.0774 8.83337 12.3663L10.3667 14.1329C10.5223 14.2885 10.6834 14.4441 10.85 14.5996C11.0167 14.7552 11.1889 14.8885 11.3667 14.9996H20.6667V3.89961C20.6667 3.41072 20.5 2.99405 20.1667 2.64961C19.8334 2.30517 19.4334 2.13294 18.9667 2.13294C18.7223 2.13294 18.4889 2.16628 18.2667 2.23294C18.0445 2.29961 17.8556 2.42183 17.7 2.59961L16 4.29961C16.0889 4.67739 16.1 5.05516 16.0334 5.43294C15.9667 5.81072 15.8334 6.17739 15.6334 6.53294L12.6334 3.66628C12.9667 3.42183 13.3334 3.27183 13.7334 3.21628C14.1334 3.16072 14.5334 3.19961 14.9334 3.33294L16.6334 1.66628C16.9445 1.35516 17.3 1.09961 17.7 0.899609C18.1 0.699609 18.5223 0.599609 18.9667 0.599609C19.8556 0.599609 20.6112 0.921831 21.2334 1.56628C21.8556 2.21072 22.1667 2.9885 22.1667 3.89961V14.9996H24.7C24.9667 14.9996 25.1945 15.0941 25.3834 15.2829C25.5723 15.4718 25.6667 15.6996 25.6667 15.9663V22.3996C25.6667 22.9329 25.4723 23.3885 25.0834 23.7663C24.6945 24.1441 24.2445 24.3329 23.7334 24.3329C23.7334 24.7552 23.5889 25.0829 23.3 25.3163C23.0112 25.5496 22.6556 25.6663 22.2334 25.6663H3.73337ZM2.26671 22.8329H23.7334C23.8667 22.8329 23.9723 22.7941 24.05 22.7163C24.1278 22.6385 24.1667 22.5329 24.1667 22.3996V16.4996H1.83337V22.3996C1.83337 22.5329 1.87226 22.6385 1.95004 22.7163C2.02782 22.7941 2.13337 22.8329 2.26671 22.8329ZM24.1667 22.8329H1.83337H24.1667Z" fill="white"/>
</svg>
