<svg width="26" height="17" viewBox="0 0 26 17" fill="none" xmlns="http://www.w3.org/2000/svg">
<path d="M1.10004 16.6667C0.877819 16.6667 0.694485 16.5944 0.550041 16.45C0.405596 16.3056 0.333374 16.1222 0.333374 15.9V8.96667C0.333374 8.5 0.444485 8.03333 0.666707 7.56667C0.88893 7.1 1.22226 6.74444 1.66671 6.5V3C1.66671 2.15556 1.9556 1.44444 2.53337 0.866667C3.11115 0.288889 3.82226 0 4.66671 0H10.8C11.2667 0 11.6889 0.105556 12.0667 0.316667C12.4445 0.527778 12.7556 0.811111 13 1.16667C13.2445 0.811111 13.55 0.527778 13.9167 0.316667C14.2834 0.105556 14.7 0 15.1667 0H21.3334C22.1778 0 22.8889 0.288889 23.4667 0.866667C24.0445 1.44444 24.3334 2.15556 24.3334 3V6.5C24.7778 6.74444 25.1112 7.1 25.3334 7.56667C25.5556 8.03333 25.6667 8.5 25.6667 8.96667V15.9C25.6667 16.1222 25.5945 16.3056 25.45 16.45C25.3056 16.5944 25.1223 16.6667 24.9 16.6667C24.6778 16.6667 24.5 16.5944 24.3667 16.45C24.2334 16.3056 24.1667 16.1222 24.1667 15.9V14H1.83337V15.9C1.83337 16.1222 1.76671 16.3056 1.63337 16.45C1.50004 16.5944 1.32226 16.6667 1.10004 16.6667ZM13.7667 6.1H22.8334V3C22.8334 2.57778 22.6834 2.22222 22.3834 1.93333C22.0834 1.64444 21.7334 1.5 21.3334 1.5H15.1C14.7223 1.5 14.4056 1.65 14.15 1.95C13.8945 2.25 13.7667 2.6 13.7667 3V6.1ZM3.16671 6.1H12.2334V3C12.2334 2.6 12.1056 2.25 11.85 1.95C11.5945 1.65 11.2778 1.5 10.9 1.5H4.66671C4.26671 1.5 3.91671 1.65 3.61671 1.95C3.31671 2.25 3.16671 2.6 3.16671 3V6.1ZM1.83337 12.5H24.1667V8.96667C24.1667 8.58889 24.0389 8.27222 23.7834 8.01667C23.5278 7.76111 23.2112 7.63333 22.8334 7.63333H3.16671C2.78893 7.63333 2.47226 7.76111 2.21671 8.01667C1.96115 8.27222 1.83337 8.58889 1.83337 8.96667V12.5ZM24.1667 12.5H1.83337H24.1667Z" fill="white"/>
</svg>
